<svg xmlns="http://www.w3.org/2000/svg" viewBox="100 250 750 360"><path d="m313 524-27 8c-23 6-54 7-74-7-13-9-19-26-22-41-6-25-6-51-4-76l2-27c3-15 9-31 22-41 20-15 51-14 74-9 9 2 19 6 28 7l5-46c1-4 4-13 1-16-2-3-7-4-10-5l-27-7c-40-7-86-3-120 22-39 29-50 83-51 129l1 34c3 44 9 93 45 124 32 28 82 32 123 25l30-9c3-1 8-2 10-5 2-4 0-13-1-17-2-14-5-29-5-43m62-257-1 83c-2 82 0 163 0 245h63V482c0-24-1-47 1-71 7 14 11 30 16 44l31 88 13 37c1 4 2 11 6 14 2 2 8 1 11 1h27c4 0 8 1 11-2 4-5 5-14 7-20l14-38 28-80c6-15 13-31 17-47 2 7 1 14 1 21v166h65V267h-79l-8 22-21 59-30 86c-6 16-11 33-18 48-8-17-13-35-19-52-12-36-24-72-38-107l-14-39c-1-4-3-13-7-16s-16-1-21-1h-55m410 0c-10 1-23 2-30 10-10 12-10 37 1 49 7 7 19 11 29 10 11-1 22-4 28-13 9-13 8-37-3-48-6-6-17-8-25-8m-34 99v228h65V363c-22 1-43 3-65 3z" fill="#ff0202"/></svg>